<svg width="76" height="44" viewBox="0 0 76 44" fill="none" xmlns="http://www.w3.org/2000/svg">
<rect width="76" height="44" rx="22" fill="#4C70EF" fill-opacity="0.9"/>
<path d="M23.096 31V29.344C23.544 29.344 23.904 29.216 24.176 28.96C24.448 28.704 24.672 28.368 24.848 27.952C25.04 27.536 25.224 27.088 25.4 26.608L30.08 13.768H31.76L36.872 26.848C36.968 27.088 37.096 27.456 37.256 27.952C37.416 28.432 37.512 28.856 37.544 29.224C37.816 29.192 38.072 29.176 38.312 29.176C38.568 29.16 38.776 29.152 38.936 29.152V31H32.48V29.416C32.928 29.416 33.232 29.328 33.392 29.152C33.568 28.96 33.648 28.704 33.632 28.384C33.616 28.064 33.528 27.704 33.368 27.304L32.888 25.984L27.68 26.08L27.296 27.208C27.216 27.416 27.096 27.728 26.936 28.144C26.792 28.544 26.656 28.88 26.528 29.152C26.784 29.12 27.088 29.104 27.44 29.104C27.808 29.088 28.072 29.08 28.232 29.08V31H23.096ZM28.28 24.28H32.288L31.184 21.28C30.976 20.704 30.792 20.128 30.632 19.552C30.472 18.96 30.352 18.44 30.272 17.992H30.248C30.184 18.264 30.088 18.672 29.96 19.216C29.832 19.76 29.632 20.408 29.36 21.16L28.28 24.28ZM40.2313 31V29.416C40.5993 29.4 40.9033 29.352 41.1433 29.272C41.3993 29.192 41.5913 29.008 41.7193 28.72C41.8633 28.432 41.9353 27.968 41.9353 27.328V18.136C41.9353 17.704 41.9433 17.288 41.9593 16.888C41.9913 16.488 42.0153 16.184 42.0312 15.976C41.7753 15.992 41.4553 16.008 41.0713 16.024C40.6873 16.024 40.4073 16.032 40.2313 16.048V14.2C41.3353 14.184 42.4393 14.176 43.5433 14.176C44.6633 14.176 45.7753 14.168 46.8793 14.152C48.7993 14.136 50.3193 14.496 51.4393 15.232C52.5753 15.952 53.1033 17.048 53.0233 18.52C52.9913 18.984 52.8473 19.44 52.5912 19.888C52.3353 20.32 51.9513 20.712 51.4393 21.064C50.9433 21.416 50.3193 21.696 49.5673 21.904V21.928C51.1673 22.184 52.3433 22.72 53.0953 23.536C53.8473 24.336 54.2233 25.232 54.2233 26.224C54.2233 27.264 53.9673 28.144 53.4553 28.864C52.9593 29.568 52.2713 30.104 51.3913 30.472C50.5113 30.824 49.5113 31 48.3913 31H40.2313ZM45.3193 29.296C45.6073 29.296 45.8793 29.296 46.1353 29.296C46.3913 29.296 46.6473 29.296 46.9033 29.296C47.1593 29.28 47.4073 29.272 47.6473 29.272C48.6233 29.224 49.3353 28.912 49.7833 28.336C50.2313 27.76 50.4553 27.032 50.4553 26.152C50.4553 25.416 50.3033 24.84 49.9993 24.424C49.6953 23.992 49.3033 23.688 48.8233 23.512C48.3593 23.336 47.8713 23.248 47.3593 23.248C46.9593 23.248 46.6153 23.248 46.3273 23.248C46.0393 23.248 45.7353 23.256 45.4153 23.272V27.184C45.4153 27.616 45.4073 28.024 45.3913 28.408C45.3753 28.792 45.3513 29.088 45.3193 29.296ZM45.4153 21.568L46.6633 21.544C47.3353 21.528 47.8633 21.376 48.2473 21.088C48.6473 20.8 48.9273 20.416 49.0873 19.936C49.2633 19.44 49.3513 18.904 49.3513 18.328C49.3513 17.688 49.2233 17.192 48.9673 16.84C48.7113 16.472 48.3913 16.208 48.0073 16.048C47.6233 15.888 47.2233 15.816 46.8073 15.832C46.5513 15.832 46.3193 15.872 46.1113 15.952C45.9033 16.032 45.7353 16.216 45.6073 16.504C45.4793 16.776 45.4153 17.224 45.4153 17.848V21.568Z" fill="white"/>
</svg>
