<svg width="1000" height="558" viewBox="0 0 1000 558" fill="none" xmlns="http://www.w3.org/2000/svg">
<rect width="1000" height="558" fill="#F5F5F5"/>
<g id="Baden-W&#195;&#188;rttemberg 1" clip-path="url(#clip0_0_1)">
<g id="layer2">
<path id="deer2" d="M9 56.954L29.604 75.456L64.505 84.707L114.965 89.332L152.389 84.707L188.972 77.138L180.562 92.277L168.368 104.891L166.686 112.88L184.347 110.778L192.757 135.167L209.157 168.386L211.68 195.298L198.644 220.527L170.05 256.69L128.421 275.192L106.976 289.489L93.52 310.934L78.802 320.606L61.141 328.174L58.197 344.153L78.801 335.743L79.642 351.302L97.723 369.383V380.317L84.267 397.136L39.694 419.843L37.592 495.953L57.776 517.398L76.698 516.136L61.14 499.737L51.469 485.44L51.889 459.79L59.037 437.504L84.267 429.514L135.988 399.66L139.772 404.706L136.408 433.72L131.783 454.745L135.568 459.791L229.339 488.385L247 513.614L259.615 511.511L241.535 475.349L168.368 453.904L159.958 444.653L188.552 332.38L215.043 326.914L243.217 311.775L275.175 284.443L284.006 285.284L310.077 297.058L330.681 312.617L336.989 339.528L337.831 375.271L349.184 389.988L355.492 381.158L345.4 305.888V273.51L343.718 299.58L305.03 262.998L308.815 243.655L318.907 212.118L319.328 183.524L315.543 142.315L321.43 125.495L334.045 112.039L331.101 92.696L323.532 100.265L315.123 117.505L304.189 129.7L300.826 148.623V154.51L294.518 148.202L275.175 128.859L251.207 120.028L247.422 112.88L256.673 102.788L267.186 93.117L278.96 92.276L289.472 91.014L290.313 87.65L283.585 83.866L283.165 77.137L291.995 70.409L292.836 61.999L284.005 60.317L207.895 58.634L217.567 26.256L212.942 27.518L207.896 41.394L198.645 53.168L197.384 37.189L184.769 54.429L169.21 54.009L164.585 46.44L157.857 27.097L155.334 50.645L149.026 51.907L144.401 48.123L137.253 54.43H120.013L109.5 43.497L100.67 32.564L103.613 46.02L100.67 53.168H93.101L85.112 51.065L79.646 53.168L65.77 49.804L54.837 33.405L52.314 48.123L45.586 48.543L48.109 57.374L59.883 59.056L83.851 62.42L85.113 53.169L91.421 54.43L94.785 62.42L101.513 63.681L128.425 64.102L137.676 62.84L143.984 51.486L147.348 61.578L165.009 64.942L173.84 65.363L165.43 72.511L147.769 71.67L146.087 49.383L138.518 63.26L133.472 73.773L114.129 77.978L97.73 76.295L90.582 51.906L85.957 53.588L84.696 72.09L77.127 73.773L48.953 69.147L40.123 42.235L35.077 40.553L38.02 64.101L22.041 61.578L9 56.954V56.954Z" fill="#FBF07E"/>
<path id="deer1" d="M977.431 31.754L924.446 44.342L865.102 48.132L839.476 54.04L824.769 73.372L815.071 72.922L813.85 66.179L771.333 62.004L751.616 57.765L721.752 59.885L712.889 64.509L707.43 76.326L723.422 80.051L738.578 93.089L741.083 100.282L722.137 98.997L721.752 105.291L731.386 107.86L752.001 119.613L736.01 131.367L722.588 144.019L709.999 159.112L704.926 158.277L691.447 135.063L688.532 111.966L688.515 93.12L679.75 96.226L686.006 104.508L683.089 122.951L686.815 133.034L678.85 145.688L686.814 167.139L691.887 199.509L693.172 223.914L698.631 251.659L712.054 262.128L690.217 309.654L679.685 319.351L674.675 317.232L666.262 323.526L666.647 339.967L678.015 347.931L683.474 342.922L711.668 314.727L740.248 291.992L753.286 303.809L785.27 313.057L822.263 327.765L821.428 374.006L833.567 422.818L831.062 450.113L826.887 460.646L778.076 500.593L769.277 499.309L766.086 503.548L772.617 514.851L782.314 520.311L798.242 519.09L808.389 512.347L806.656 506.438L825.152 487.941L834.464 484.152L840.759 500.593L855.017 518.641L872.293 523.714L883.211 520.311L895.413 515.301L905.048 502.263L908.837 485.051L913.91 468.224L896.249 477.023L892.459 482.482L891.624 500.979L881.092 510.677L869.788 510.227L857.585 506.053L849.558 493.015L848.722 472.399L862.595 454.352L868.054 440.414L881.092 429.111L899.203 419.862L927.783 440.029L942.94 456.406L948.399 498.024L946.279 504.767H936.196L928.232 509.006L937.48 518.64L962.271 520.31L971.183 512.346L965.611 506.052L961.822 426.541L921.039 404.705L926.498 395.456L943.774 373.17L947.949 357.179L942.94 336.177L930.288 314.726L914.745 303.808L889.119 291.991L816.352 252.493L804.599 240.739L803.315 234.831L820.53 221.346L823.099 206.253L836.522 188.591L839.476 174.269L849.174 161.681L848.724 152.433L854.633 148.194L866.386 133.037L868.891 123.789L881.929 116.275L885.718 105.742L899.205 98.998L912.628 86.796L922.711 82.621L958.934 72.923L978.266 61.556L990.019 46.848L976.596 48.968L969.018 47.298L977.431 31.754V31.754ZM902.546 316.848L910.573 317.234L929.456 335.731L934.08 358.466L924.446 381.972L910.573 391.67L898.371 361.806L905.949 334.061L902.546 316.848ZM865.551 401.753L881.543 411.451L877.304 418.58L864.267 423.654L865.551 401.753V401.753Z" fill="#FBF07E"/>
<path id="path5113" d="M331.382 133.258L336.735 140.692L345.655 291.442L349.223 342.287L358.738 399.971L372.415 432.975L395.905 471.035L439.316 504.039L481.538 519.501L522.273 519.203L555.575 510.283L593.931 487.388L623.664 455.275L649.235 410.675L661.129 345.558L664.4 239.409L671.536 93.417L656.967 102.337L629.909 102.932L618.313 87.173L613.555 47.627L613.556 38.4L606.201 29.826L599.176 33.206L590.894 29.56L582.384 27.547L573.844 27.061L557.36 22.354L556.171 6L444.669 8.08099L444.967 70.819L435.749 89.254L422.369 97.58L399.473 97.877L386.093 80.929L381.633 85.687L373.605 100.851L356.955 104.716L346.548 99.661L334.95 88.657L335.247 118.094L336.436 133.556L331.382 133.258V133.258Z" fill="#FBE400"/>
<path id="path5115" d="M331.382 37.516L333.761 79.441L342.384 60.411L353.683 74.981L357.845 58.33L368.549 72.305L373.009 55.357L383.118 70.522L382.523 26.218L331.382 37.516V37.516Z" fill="#FF0100"/>
<path id="path5117" d="M618.014 25.325L673.913 36.326L673.318 59.518L617.716 50.003L618.014 25.325V25.325Z" fill="#FF0100"/>
<path id="path5119" d="M618.609 73.196L672.13 82.711L670.644 91.036L657.858 101.443L642.694 102.632L622.773 94.901L618.908 80.926L618.609 73.196V73.196Z" fill="#FF0100"/>
<path id="path5121" d="M11.523 533.799L13.205 556.506L999.693 559.028V535.48L11.523 533.799V533.799Z" fill="#FBE400"/>
<path id="path7061" d="M334.57 80.396L342.77 61.579L353.177 75.035L358.013 59.266L367.684 72.828L372.835 56.639L380.93 66.311L385.66 66.415L385.029 26.783L443.774 16.404L444.666 71.114L433.367 91.928L417.608 97.28L399.768 85.981L384.901 80.926L379.252 92.523C379.252 92.523 370.927 102.038 369.737 102.038C368.547 102.038 350.113 102.038 350.113 102.038L339.409 93.712L334.57 80.396Z" fill="white"/>
<path id="path8032" d="M618.014 50.895L672.427 59.816L670.94 82.711L618.609 73.493L618.014 50.895V50.895Z" fill="white"/>
<path id="path3293" d="M678.179 79.658L690.783 86.065L691.834 91.211L680.385 95.518L680.91 98.458L687.843 104.655L678.494 112.848L677.864 105.915L675.448 97.302L679.335 93.101L679.649 83.542L678.179 79.658V79.658Z" fill="#FF0100"/>
<path id="path4264" d="M677.339 133.962L676.919 142.26L671.877 151.188L679.965 150.453L685.637 143.31L685.112 136.168L678.6 133.752L677.339 133.962V133.962Z" fill="#FF0100"/>
<path id="path5249" d="M671.566 300.891L677.507 303.416L683.003 316.191L672.011 320.053L673.497 313.962L671.12 302.524" fill="#FF0100"/>
<path id="path5251" d="M674.187 348.762L684.271 349.182L684.796 354.328L687.001 367.038L684.796 376.701L678.703 382.688L664.943 386.575L661.582 386.364L662.843 383.843L669.88 380.482L675.552 372.71V364.412L663.158 363.571L664.418 361.156L672.086 357.899L673.557 355.063" fill="#FF0100"/>
<path id="path5253" d="M339.718 378.431L351.899 379.619L354.573 398.931L340.907 383.779" fill="#FF0100"/>
<path id="path5255" d="M244.947 512.715L260.098 509.744L270.793 524.895L253.265 525.489" fill="#FF0100"/>
<path id="path5257" d="M52.731 514.497L71.745 512.121L80.955 524.895L59.564 525.192" fill="#FF0100"/>
<path id="path5271" d="M807.899 504.951L807.794 516.085L815.987 520.602L818.088 523.542L819.663 514.93L807.899 504.951Z" fill="#FF0100"/>
<path id="path5273" d="M728.702 520.811L728.281 513.668L735.004 503.164L745.508 498.963L765.675 496.862L766.095 509.466L759.793 512.826L753.91 519.969L753.49 510.306H748.869L745.508 513.247L740.466 522.069L738.785 513.667L734.584 514.087L728.702 520.811V520.811Z" fill="#FF0100"/>
<path id="path5284" d="M903.902 522.492L905.058 515.559L910.834 506.526L914.931 502.639L916.402 505.79L917.557 510.412L922.599 507.471L929.111 502.744L931.002 515.453L920.498 517.869L916.297 522.491L915.352 522.281L915.667 514.403L909.785 516.608L905.163 521.65L903.902 522.492V522.492Z" fill="#FF0000"/>
<path id="path5286" d="M972.814 507.367L968.952 516.28L975.19 518.954L979.647 525.787L980.241 518.062L976.676 508.852L975.191 507.07L972.814 507.367V507.367Z" fill="#FF0000"/>
<path id="path5288" d="M585.059 23.792L580.414 27.178L590.439 30.259L595.51 33.363L594.06 25.613L593.541 22.844" fill="#FF0000"/>
<path id="path2239" d="M445.838 7.81201L463.169 7.91701L495.416 59.069L492.475 76.506L484.387 89.425L446.048 31.655L445.838 7.81201Z" fill="#FF0000"/>
</g>
<g id="layer1">
<path id="path4733" d="M558.472 0.00012207L437.473 0.128128V12.2021C409.57 16.8421 382.847 21.1841 355.265 27.1021L326.685 33.4601L328.226 59.2781C328.226 84.3021 328.024 85.5251 321.547 98.3911C317.873 105.688 310.537 116.139 305.234 121.64C296.355 130.851 295.671 132.219 296.82 139.302L298.04 147.009L286.929 135.705C278.582 127.213 272.606 123.193 262.973 119.713C248.877 114.619 247.578 112.149 254.752 103.85C261.537 96.0011 270.272 92.1461 281.919 91.9041C290.971 91.7161 292.325 91.1461 292.901 87.0881C293.436 83.3211 292.578 82.4631 288.276 82.4641C281.509 82.4641 281.395 77.6761 288.084 74.6281C293.422 72.1961 296.633 64.1791 294.506 58.6361C293.458 55.9061 289.977 55.4531 273.248 55.8741C262.23 56.1521 243.328 56.1181 231.245 55.8111L209.28 55.2331L213.262 45.1491C217.398 34.6561 218.247 20.7311 215.189 13.6151C213.911 10.6401 213.367 10.3841 213.262 12.7161C212.953 19.6051 206.7 36.4721 202.665 41.3611L198.426 46.4991L199.325 34.1681C199.798 27.3951 199.247 18.6081 198.105 14.6441L196.05 7.45213L193.674 19.7831C192.394 26.5651 189.531 36.5311 187.316 41.9401C183.384 51.5431 183.151 51.7611 175.242 51.1881C167.859 50.6531 166.944 49.9731 165.351 43.4171C162.94 33.4901 155.375 14.5861 153.79 14.5801C153.074 14.5771 152.779 21.9761 153.148 31.0211C153.997 51.8601 150.118 53.5411 143.257 35.1961C140.721 28.4141 137.856 22.8641 136.899 22.8641C135.942 22.8641 135.501 24.0201 135.936 25.4331C136.372 26.8461 137.268 31.8211 137.927 36.5441C139.424 47.2581 135.741 51.6371 125.082 51.6371C118.554 51.6371 116.914 50.6421 113.714 44.7001C109.871 37.5631 96.0012 22.1441 94.6392 23.5061C94.2172 23.9281 95.2412 27.6331 96.9512 31.7271C104.825 50.5721 95.8592 56.9511 84.7482 40.3981C77.6652 29.8451 76.0782 29.8261 79.5462 40.3341C80.9012 44.4411 81.5212 48.2491 80.9592 48.8121C80.3972 49.3741 76.8482 49.2091 73.0592 48.4911C67.5852 47.4541 64.8942 45.1181 60.0212 36.9951C53.0402 25.3571 42.7052 14.5681 45.5062 21.8381C48.3732 29.2791 49.3942 43.4181 47.0472 43.4181C45.8322 43.4181 40.4932 39.0241 35.2302 33.6551C29.4872 27.7961 26.2462 25.5361 27.0742 28.0041C27.8322 30.2651 28.9412 34.6691 29.5792 37.8301L30.7352 43.6101L20.0092 39.5001C10.5952 35.9231 9.59722 35.8141 12.3662 38.8571C14.1082 40.7711 19.1032 44.1861 23.4132 46.4361C31.8562 50.8431 34.2182 53.2651 34.2672 57.2901C34.3382 63.0951 14.9682 57.4911 6.07221 49.1341C3.51821 46.7351 0.859215 45.2911 0.163215 45.9871C-1.74979 47.9001 13.3022 65.3721 20.9082 70.0721C50.5332 88.3811 121.741 93.5951 169.396 80.9261C176.423 79.0581 182.693 78.1031 183.397 78.8071C184.101 79.5101 180.791 83.6091 176.011 87.9271C168.977 94.2811 159.698 109.532 159.698 114.708C159.698 115.77 165.566 114.881 176.268 112.203C181.085 110.998 181.727 111.653 184.103 119.782C185.534 124.678 189.887 134.472 193.737 141.553C198.138 149.649 202.16 161.474 204.591 173.408L208.444 192.419L201.315 205.778C183.247 239.649 169.154 251.804 125.273 271.544C113.041 277.047 109.328 279.94 104.272 287.729C94.2832 303.115 84.5462 312 73.7012 315.603C60.6402 319.941 55.2402 325.919 53.5992 337.889C52.2222 347.937 53.3362 349.463 58.8012 344.761C60.5862 343.225 65.0822 340.983 68.7562 339.751L75.4362 337.503V345.402C75.4362 352.262 76.7002 354.518 84.8772 361.715L94.3182 370L89.8222 379.377C81.6922 396.172 73.8392 401.434 37.9282 413.994C34.6632 415.136 34.3312 419.103 34.3312 456.767V498.256L44.6072 507.697C50.2592 512.892 54.5622 519.825 54.5622 520.67C52.5072 520.67 44.2862 520.67 31.9552 520.67H9.34821V557.664H999.952V520.67H989.677C981.456 520.67 979.542 521.739 980.236 518.68C981.463 513.272 976.014 503.78 971.694 503.78C968.23 503.78 967.761 500.959 966.363 471.411C965.521 453.607 964.253 434.971 963.538 430.05C962.304 421.554 961.735 420.908 951.977 417.27C940.685 413.06 931.133 408.094 926.03 403.718C923.045 401.157 923.418 400.155 929.884 393.249C933.824 389.042 939.815 379.606 943.179 372.311C948.415 360.956 949.106 357.592 947.932 348.741C944.694 324.335 924.588 300.917 897.387 289.847C889.36 286.58 877.56 280.171 871.118 275.653C864.678 271.135 853.553 265.165 846.391 262.359C828.743 255.442 816.826 248.216 810.296 240.458L804.837 233.972L810.746 230.375C818.91 225.41 825.582 216.479 825.582 210.466C825.582 207.629 828.263 202.775 831.747 199.29C835.139 195.899 837.955 191.085 838.042 188.629C838.33 180.441 839.438 177.705 844.85 171.866C847.805 168.678 850.372 164.161 850.566 161.783C850.759 159.404 851.015 155.976 851.144 154.204C851.273 152.432 854.864 147.53 859.108 143.286C863.352 139.042 867.379 132.883 868.035 129.606C868.819 125.687 871.685 122.231 876.385 119.459C880.315 117.141 884.476 112.547 885.697 109.312C887.148 105.467 890.763 102.226 896.101 99.8711C900.594 97.8891 907.835 93.0511 912.158 89.1451C918.474 83.4391 923.383 81.2761 937.334 78.2271C963.134 72.5891 976.784 64.6171 991.861 46.3721C1000.97 35.3431 1002.38 31.7831 996.356 35.0041C989.905 38.4571 973.226 43.7301 972.143 42.6471C971.585 42.0891 973.52 38.1551 976.447 33.8481C979.373 29.5421 981.777 25.3351 981.777 24.5361C981.777 23.7371 975.398 25.2971 967.648 28.0051C947.868 34.9151 889.224 43.3851 860.778 43.4191C844.192 43.4391 837.477 46.4531 829.05 57.7411C824.819 63.4091 819.974 68.0811 818.261 68.0811C815.736 68.0811 815.558 67.2681 817.426 63.7781C819.422 60.0471 819.218 59.5941 815.948 60.5661C805.813 63.5781 783.025 62.1561 771.183 57.8041C763.789 55.0871 756.886 53.8321 753.713 54.5931C750.828 55.2841 741.575 56.1061 733.098 56.3911C724.173 56.6931 715.781 58.1181 713.188 59.7951C706.014 64.4381 700.914 79.1731 706.894 77.9711C712.013 76.9421 721.709 80.7651 729.373 86.8341C739.141 94.5691 739.328 97.0651 729.951 94.4771C722.997 92.5561 708.435 95.5581 708.435 98.9091C708.435 99.6051 713.29 101.783 719.225 103.725C734.975 108.881 744.269 113.845 744.979 117.534C745.366 119.541 741.43 123.568 734.704 128.067C728.724 132.066 719.925 139.29 715.18 144.123L706.574 152.922L701.115 140.783C690.11 116.371 689.316 114.229 689.362 109.184C689.387 106.359 690.49 101.272 691.867 97.8801C695.486 88.9631 692.471 82.1981 682.682 77.3281L674.461 73.2181L675.232 52.3451L676.003 31.4721C676.003 31.4721 648.219 25.4661 618.972 21.0031C589.725 16.5411 559.05 13.6171 559.05 13.6171L558.472 0.00012207V0.00012207ZM446.248 7.25113L462.2 7.19313L493.635 58.1231C492.081 70.3301 488.16 80.6411 481.631 84.4741L446.593 28.5161L446.248 7.25113V7.25113ZM500.734 7.25713H550.894L550.444 61.0771C544.906 94.6031 506.458 92.0941 500.734 61.3981V7.25713V7.25713ZM465.668 7.32112L493.67 7.45012V53.2421L465.668 7.32112V7.32112ZM523.92 10.4691C522.987 10.6241 521.022 12.7881 520.002 14.7721C516.916 20.7781 510.943 23.5091 512.681 14.8361C513.772 9.38712 511.682 10.6921 510.369 13.2941C509.162 15.6851 508.798 17.2031 508.828 18.9461C508.845 19.9161 509.895 23.8571 507.993 24.1481C508.079 23.3591 507.275 22.1571 506.323 22.1571C505.341 22.1571 504.598 23.4901 504.525 24.3411C503.761 24.5291 502.791 25.2331 502.791 26.0111C502.791 26.7711 503.905 27.5421 504.525 27.5521C504.725 28.2911 505.368 29.6131 506.323 29.6081C507.346 29.6021 507.932 28.3251 508.057 27.6811C508.626 27.6421 510.508 26.9631 511.782 25.5621C513.836 23.3011 535.301 23.7991 542.481 26.6541C547.868 28.7951 550.937 25.7741 545.95 23.8281C543.144 22.7331 542.335 20.0951 543.445 18.1121C546.312 12.9921 544.447 12.0641 541.389 16.8911C537.819 22.5291 530.02 22.5621 534.068 14.8361C537.436 8.40712 532.887 11.6101 531.306 14.2581C527.549 20.5491 520.147 21.6521 523.214 14.8361C524.746 11.4301 524.644 10.3481 523.92 10.4691V10.4691ZM410.756 21.3871L411.462 55.0401L387.956 58.3801L386.735 25.8181L410.756 21.3871V21.3871ZM583.906 23.0571C584.19 23.0331 584.501 23.0791 584.804 23.1211C585.505 23.2181 586.229 23.4551 586.86 23.5061C588.263 23.6201 590.276 24.6441 591.163 25.0481C595.326 26.9441 593.347 33.1831 593.347 38.9201C593.347 42.8891 591.905 47.7561 590.136 49.7101C587.189 52.9671 588.231 52.7461 593.476 57.6091C601.491 65.0411 602.748 62.7241 599.578 47.7831C596.768 34.5441 597.614 31.0851 603.624 31.0851C608.531 31.0851 607.895 33.8611 608.634 38.0211C609.79 44.5331 599.452 43.0721 605.23 36.0941C607.654 33.1671 602.532 31.9101 600.542 35.1311C599.86 36.2341 600.43 42.6271 601.826 49.3891C602.956 54.8561 603.905 62.4261 601.698 64.6101C600.108 66.1831 601.4 66.7841 600.927 69.1711C600.409 71.7781 598.035 73.4581 595.788 74.8871C594.271 75.8521 593.66 78.2831 594.375 80.5391C595.066 82.7161 594.73 84.5201 593.604 84.5201C592.478 84.5201 590.251 85.8171 588.659 87.4111C587.936 88.1331 586.21 88.3361 585.513 88.4381C585.527 88.9311 584.825 89.6931 584.292 89.7871C583.502 89.9251 583.222 89.5531 583.008 89.4011C582.698 89.5051 581.728 89.3311 581.467 88.8871C581.244 88.5101 581.524 88.0751 581.595 87.7951C581.285 87.5051 580.831 86.7761 581.467 86.1901C581.686 85.9871 582.215 85.9041 582.559 85.9981C582.729 85.6721 583.056 85.1941 583.33 85.2271C583.936 85.2991 584.273 85.7621 585.128 85.5481C586.259 85.2661 586.977 84.4691 588.147 84.3281C589.506 84.1641 590.494 82.8491 588.854 79.8961C587.441 77.3531 583.861 77.3111 586.22 73.8591C587.804 71.5431 586.413 71.1841 584.871 71.0331C582.873 70.8371 578.892 70.1011 580.311 72.3171C583.883 77.8981 573.818 77.4831 570.42 78.0341C570.094 78.0871 569.364 77.9431 569.007 78.2911C569.032 78.9081 568.792 79.2421 568.043 79.3831C567.506 79.4841 566.922 78.8481 566.631 78.6121C566.094 78.9701 565.126 78.2931 565.025 78.0341C564.918 77.7591 564.908 76.9221 565.282 76.6211C565.096 76.1981 564.921 75.5171 565.154 75.2081C565.513 74.7301 566.266 74.7421 566.503 74.6941C566.355 74.2921 567.191 73.8161 567.724 73.7301C568.259 73.6441 568.982 74.3781 568.944 75.0791C569.595 75.4691 570.005 75.5131 570.742 75.4651C572.438 75.3551 578.423 75.1781 575.816 70.6491C573.335 66.3371 579.475 66.0241 581.468 66.0241C583.46 66.0241 585.128 65.0991 585.128 63.9691C585.128 62.8381 583.859 61.9131 582.302 61.9131C580.745 61.9131 578.295 60.5021 576.907 58.8311C574.917 56.4331 572.421 56.2941 568.943 58.1241C567.928 58.6581 566.476 59.4581 565.989 60.3081C565.573 61.0321 565.047 61.0871 565.025 61.7861C565.421 62.0781 565.179 63.4081 564.962 63.6481C564.436 64.2281 563.927 64.0641 562.971 63.5841C562.749 63.8131 561.521 64.1851 561.044 63.7771C560.717 63.4971 560.777 62.5511 560.723 62.2991C560.047 62.3561 559.824 61.8701 559.631 61.1431C559.428 60.3761 560.24 59.9971 560.53 59.7301C560.157 59.1691 560.496 58.3281 560.915 58.0601C561.502 57.6871 562.6 57.7121 563.163 58.5741C564.184 58.3641 565.104 57.8761 565.86 57.2251C571.426 52.4381 571.457 51.8481 569.007 43.6741C567.608 39.0031 565.181 35.4521 564.446 34.2971C563.313 34.9271 562.46 34.8351 562.07 34.0401C561.647 33.1761 561.568 32.4881 562.327 31.9201C561.832 31.2201 561.715 29.8581 562.456 29.0301C563.21 28.1881 563.853 28.3041 564.64 29.0941C565.106 28.3611 564.946 27.8151 565.86 27.8091C566.614 27.8051 567.484 28.2101 567.53 29.4151C568.222 29.2421 569.081 29.7381 569.135 30.2501C569.267 31.4691 568.755 31.8481 567.915 32.5621C569.386 36.7641 573.641 42.0851 577.163 40.9121C578.282 40.5391 581.028 37.1291 581.595 35.4531C581.791 34.8731 576.495 35.5981 576.714 33.9111C576.81 33.1701 579.861 34.1571 580.374 33.7831C581.735 32.7891 581.467 30.7001 580.374 30.7001C579.56 30.7001 577.438 30.8371 576.714 30.9571C575.851 31.1001 576.264 29.7901 576.264 29.4791C576.264 28.1091 577.927 26.7881 579.925 26.8461C580.952 25.9341 581.905 23.9531 583.072 23.3141C583.315 23.1791 583.622 23.0801 583.906 23.0571V23.0571ZM619.037 25.6901L669.839 35.2591L669.582 56.0041L619.165 47.0131L619.037 25.6901V25.6901ZM379.285 26.9741L380.249 61.2711L371.45 49.5171L366.055 65.5091L356.357 52.6001L351.155 68.5921L341.264 55.0401L334.327 71.6101L332.722 36.8641L379.285 26.9741ZM582.236 27.8731C581.661 27.8731 580.887 28.1571 580.887 28.7721C580.887 29.3871 581.597 29.6071 582.171 29.6071C582.745 29.6071 583.455 29.4521 583.455 28.8361C583.456 28.2211 582.81 27.8731 582.236 27.8731V27.8731ZM212.558 31.5991C212.84 31.4911 212.918 32.3691 212.943 34.1671C212.974 36.4281 211.668 40.5901 210.053 43.4161C208.437 46.2411 207.074 50.5461 207.034 53.0501C206.994 55.5531 205.166 58.5631 202.988 59.7291C196.482 63.2111 196.589 55.7501 203.181 47.2061C206.344 43.1051 209.814 37.5571 210.888 34.8751C211.742 32.7391 212.275 31.7061 212.558 31.5991V31.5991ZM158.095 32.1121L160.535 42.3871C162.856 52.2391 163.322 52.7431 172.096 54.9761C179.635 56.8941 180.555 57.5871 177.17 58.8931C171.666 61.0161 172.434 60.9461 160.215 60.2421C151.244 59.7261 149.425 58.9601 149.425 55.7471C149.425 53.6211 151.275 51.3261 153.535 50.6081C156.723 49.5961 157.649 47.3201 157.838 40.6541L158.095 32.1121V32.1121ZM522.25 32.6261C521.44 32.6501 520.109 34.0911 519.167 36.4801C517.395 40.9711 512.538 45.6631 512.938 36.0311C513.3 30.6341 510.14 32.7171 509.727 37.0581C509.375 40.7431 511.046 45.3771 508.892 45.6001C508.794 44.7321 508.075 43.7371 507.35 43.7371C506.135 43.7381 505.345 44.6751 505.423 45.6641C504.867 45.6791 503.341 46.5531 503.496 47.9121C503.568 48.5451 504.818 49.6321 505.295 49.7111C505.268 50.3991 506.115 51.2371 506.965 51.2521C507.827 51.2671 508.785 50.4991 508.892 49.7111C510.724 49.2451 512.027 48.7491 513.195 47.6551C517.226 44.8041 536.974 44.8111 542.289 47.6551C546.971 50.1611 550.552 48.2211 546.207 45.5361C544.578 44.5291 540.288 44.1731 543.06 40.1411C546.496 35.1451 542.879 34.3701 540.427 38.9201C538.39 42.7001 529.054 44.0821 532.656 36.7361C534.839 32.2851 532.455 30.5371 529.702 36.0931C527.389 40.7631 520.627 42.7751 522.38 37.1851C523.385 33.9791 523.059 32.6011 522.25 32.6261V32.6261ZM446.721 33.7821L478.682 85.6701C476.645 85.8591 477.415 86.1441 472.447 86.2011C449.347 85.4411 447.822 63.3901 446.721 43.8651C446.619 41.9781 446.884 38.5751 446.721 33.7821V33.7821ZM967.649 35.5801C968.169 35.5691 968.496 35.6561 968.612 35.7721C969.079 36.2401 967.605 38.9261 965.337 41.8091C961.551 46.6231 955.703 48.8641 936.565 52.7281C933.739 53.2981 912.537 55.1891 889.488 56.9031C866.439 58.6171 844.609 61.2391 840.999 62.7471C836.08 64.8031 831.961 69.8291 824.493 82.7221C819.013 92.1831 813.329 101.75 811.841 103.98C809.239 107.877 809.14 107.837 809.144 102.953C809.146 100.158 813.308 91.5491 818.392 83.8141C823.477 76.0791 827.64 69.1111 827.64 68.3351C827.64 65.4751 842.565 51.5921 845.816 51.4431C847.666 51.3591 851.07 51.0361 853.331 50.6721C855.592 50.3101 868.539 49.3901 882.103 48.6811C905.214 47.4741 940.804 42.1711 959.558 37.1211C962.957 36.2061 966.089 35.6141 967.649 35.5801V35.5801ZM55.2712 36.2231L58.4182 43.9301C60.9282 50.0481 62.6942 51.6151 66.9602 51.6371C74.4232 51.6761 81.6032 53.7731 81.6032 55.9401C81.6032 58.5151 58.4782 56.3061 49.4912 52.8571C44.9802 51.1271 46.1312 46.8901 50.7752 48.1051C54.2192 49.0051 54.9112 48.1441 55.0782 42.7091L55.2712 36.2231V36.2231ZM102.22 36.2231L106.266 41.3611C108.483 44.1871 110.808 48.1181 111.469 50.0951C112.415 52.9321 115.058 53.6921 123.864 53.6921C134.666 53.6921 138.442 56.0101 131.764 58.5731C127.924 60.0481 100.217 59.9431 96.5042 58.4451C92.6492 56.8891 93.3752 53.6921 97.5962 53.6921C103.769 53.6921 106.015 49.8001 104.018 42.6451L102.22 36.2231V36.2231ZM36.7102 40.3331L41.4622 54.6551L46.1502 68.9771L56.1692 71.5451C61.6692 72.9721 70.1472 74.1561 74.9872 74.1791C85.0152 74.2241 87.7012 70.4661 86.3552 58.2511C85.1862 47.6431 88.8012 52.0061 91.6222 64.6081C94.0572 75.4871 94.3262 75.7751 102.412 77.0681C111.898 78.5851 130.753 76.6701 134.396 73.7931C135.747 72.7271 137.921 66.7821 139.213 60.5631C141.945 47.4031 143.58 47.3781 143.58 60.5631C143.58 72.3801 146.725 75.1521 158.031 73.3441C173.114 70.9321 181.769 64.4911 188.473 50.6721C194.715 37.8061 195.639 38.3191 192.776 53.1121C191.272 60.8851 191.547 62.0831 195.795 64.8661C198.947 66.9311 201.01 67.2631 201.896 65.8291C203.48 63.2671 209.425 60.9321 219.301 58.8921L226.494 57.3511L219.301 63.7091C213.288 68.9761 212.613 70.3161 215.19 72.0581C219.787 75.1651 229.817 74.6561 233.751 71.0951C237.663 67.5551 242.982 68.8291 244.862 73.7281C245.668 75.8281 243.591 79.6161 239.018 84.3261C233.642 89.8611 231.726 93.7641 231.247 100.125L230.605 108.603L220.329 105.584C205.52 101.247 198.355 95.5861 199.135 88.8861C199.709 83.9521 199.169 83.4731 193.098 83.7481C185.219 84.1051 184.867 83.3141 190.914 78.4171L195.41 74.7571L190.914 73.2791C188.423 72.4881 181.492 73.2451 175.564 74.9491C169.636 76.6531 154.665 79.5761 142.231 81.4351C99.1412 87.8801 41.5882 79.6601 18.9192 63.7741C13.1882 59.7571 13.1152 59.5251 17.8922 60.8831C20.7182 61.6871 26.6472 62.8161 31.0582 63.3881L39.0222 64.4151L37.8662 52.3411L36.7102 40.3331V40.3331ZM980.943 48.2331C981.128 48.2541 981.26 48.3581 981.329 48.4251C981.873 48.9691 979.351 52.1821 975.741 55.5541C962.058 68.3361 939.137 75.6181 897.515 80.3451C835.639 87.3711 833.762 88.4051 810.94 130.698C804.842 141.999 798.757 153.097 797.389 155.36C796.02 157.624 794.259 160.922 793.471 162.618C786.419 177.782 767.782 194.03 761.743 190.299C760.663 189.631 759.816 189.941 759.816 191.005C759.816 194.667 768.606 195.207 777.029 192.097C781.668 190.384 788.281 188.193 791.672 187.216C798.579 185.227 832.397 181.066 833.418 182.078C833.779 182.436 832.23 186.408 829.95 190.877C823.538 203.446 811.95 206.629 787.048 202.759C779.811 201.634 776.258 201.823 776.258 203.273C776.258 206.983 790.972 210.511 805.481 210.273L819.418 210.016L816.207 216.31C812.467 223.543 802.377 228.384 791.095 228.384C781.697 228.384 769.319 220.904 761.873 210.786C759.047 206.947 756.014 203.753 755.193 203.722C752.433 203.618 757.973 214.92 763.543 220.806C770.864 228.544 777.331 231.783 789.361 233.586C798.04 234.888 800.085 236.205 805.481 243.862C810.868 251.504 814.838 254.018 835.795 263.194C867.924 277.261 884.096 290.362 892.056 308.729C895.188 315.957 898.775 323.834 899.955 326.262C901.56 329.565 901.168 333.447 898.478 341.676C893.013 358.391 890.513 362.437 875.164 378.99C861.655 393.56 860.894 394.861 859.494 406.928C858.685 413.893 858.645 426.846 859.43 435.701C861.003 453.476 860.583 454.395 844.208 466.785C840.474 469.611 828.354 479.784 817.298 489.392C800.397 504.08 797.872 506.981 801.435 507.889C805.471 508.917 805.432 509.137 800.279 512.513C794.436 516.341 778.314 517.437 778.314 513.991C778.314 512.832 776.002 511.018 773.176 509.944C770.059 508.759 768.037 506.337 768.037 503.843C768.037 500.28 768.734 499.986 773.304 501.723C779.927 504.242 780.369 504.269 780.369 501.531C780.369 498.832 784.037 495.714 808.371 477.639C831.919 460.148 834.69 454.874 834.446 428.764C834.32 415.389 832.821 404.987 828.923 391.321C822.573 369.066 821.696 343.064 826.675 323.95C831.42 305.733 833.964 301.762 844.08 296.59L853.328 291.837L845.557 292.865C834.575 294.296 826.087 301.043 823.207 310.655C821.869 315.12 820.164 318.811 819.353 318.811C818.541 318.811 812.64 316.499 806.25 313.673C799.86 310.847 791.189 308.477 786.982 308.471C774.73 308.452 765.305 304.954 755.834 296.846C748.437 290.514 747.489 288.895 750.054 287.02C751.74 285.788 753.771 279.729 754.55 273.533L755.962 262.294L749.668 272.955C745.351 280.305 739.418 286.341 730.851 292.158C717.593 301.161 706.642 311.428 692.573 328.06C685.302 336.655 683.547 337.846 681.591 335.252C679.683 332.722 679.475 332.998 680.307 336.794C681.566 342.537 679.681 342.584 672.728 337.115C666.923 332.549 665.791 327.288 669.774 323.306C673.22 319.86 676.202 320.253 674.784 323.949C672.528 329.827 677.327 326.988 684.353 318.297C696.254 303.575 702.355 292.371 710.749 269.743C715.18 257.799 720.249 245.628 721.988 242.768C724.585 238.497 724.028 238.747 719.034 244.052C715.689 247.606 712.002 252.23 710.813 254.328C708.725 258.014 708.576 258.041 705.546 254.071C696.634 242.39 704.867 228.126 727.062 216.949C739.131 210.871 751.595 201.5 751.595 198.452C751.595 197.928 746.74 199.926 740.806 202.884C734.871 205.842 726.897 209.762 723.079 211.618C719.262 213.475 711.739 218.919 706.381 223.692L696.618 232.363L695.398 223.178C693.224 207.322 702.53 192.648 716.463 190.038C730.82 187.35 745.429 179.434 745.429 174.303C745.429 173.173 743.81 173.621 741.832 175.33C739.853 177.04 731.828 179.973 724.041 181.882C716.255 183.79 707.225 186.798 703.939 188.497L697.965 191.579L702.204 183.294C707.479 172.954 712.353 169.786 727.958 166.66C746.081 163.03 757.576 158.75 768.548 151.567C780.781 143.559 781.3 140.631 769.319 147.328C764.397 150.079 750.757 154.562 739.005 157.283C727.253 160.005 715.602 162.844 713.058 163.641C706.753 165.619 706.879 160.631 713.316 154.585C716.531 151.564 725.958 148.037 740.546 144.373C765.856 138.017 786.641 127.838 793.917 118.298C800.765 109.32 800.098 108.412 792.183 115.858C783.716 123.823 769.431 130.34 748.51 135.832C739.468 138.206 730.219 140.688 727.958 141.355C723.848 142.569 723.848 142.557 727.958 137.952C730.219 135.419 736.692 131.079 742.345 128.254C753.027 122.914 762.831 114.824 766.172 108.665C768.861 103.707 763.956 94.8711 753.584 85.9941C744.592 78.2971 745.482 76.2961 757.887 76.2961C761.186 76.2961 763.924 75.7171 763.924 75.0751C763.924 74.4341 760.612 70.8281 756.603 67.0481C751.99 62.6971 750.148 59.6561 751.593 58.7631C755.224 56.5191 767.699 59.6371 778.568 65.5061C788.103 70.6561 788.53 71.2321 787.302 77.7741C785.783 85.8691 790.627 92.7381 797.9 92.7381C804.25 92.7381 805.041 96.1141 802.138 111.556C798.464 131.105 787.669 145.5 767.456 157.797C757.661 163.757 749.538 172.848 749.538 177.835C749.538 178.418 753.561 176.114 758.529 172.762C763.497 169.41 768.352 166.692 769.319 166.66C772.944 166.542 786.817 154.507 793.339 145.851C798.95 138.403 811.112 118.205 817.873 105.068C836.963 67.9751 836.974 67.9711 895.071 63.8361C924.922 61.7121 954.861 56.5311 971.305 50.6701C975.04 49.3391 978.498 48.4311 980.233 48.2941C980.526 48.2751 980.76 48.2121 980.943 48.2331V48.2331ZM619.037 50.9301L669.196 59.5361L668.811 78.8041L619.486 69.8131L619.037 50.9301V50.9301ZM440.62 53.1131L440.171 63.8391C438.675 76.4711 435.319 83.6371 427.519 88.2441C424.389 90.0941 415.617 93.5531 415.573 92.4831L413.84 56.1961L440.62 53.1131V53.1131ZM513.323 53.1781C512.677 53.3771 511.978 54.5211 511.589 56.7101C510.97 60.1811 512.948 64.1621 510.69 64.4811C510.547 63.6141 509.878 63.2891 509.212 63.2601C508.398 63.2271 507.578 63.8111 507.607 64.6731C506.75 64.7541 506.137 65.5611 506.066 66.4071C505.996 67.2451 506.886 68.2991 507.736 68.2691C507.701 68.9871 508.459 69.7091 509.149 69.6821C510.077 69.6451 510.962 68.7641 511.011 68.0121C511.729 68.0141 513.661 67.5891 514.351 66.6631C515.915 64.0541 534.824 65.3321 539.591 67.8841C542.649 69.5201 545.184 66.2811 540.875 64.9291C539.783 64.5861 539.499 63.4411 540.939 60.0481C542.597 56.1431 540.513 56.4761 538.948 59.1491C536.27 63.7241 529.622 63.2601 531.948 56.9651C533.282 53.3551 532.024 52.2581 529.764 55.8731C525.735 62.3181 520.956 62.3641 523.084 56.3231C524.272 52.9521 521.537 51.3791 520.065 56.2591C518.82 60.3901 513.908 65.7981 514.67 56.7731C514.888 54.2211 514.153 52.9221 513.323 53.1781V53.1781ZM372.285 56.9671L379.928 68.1431C381.848 83.2361 377.178 93.4601 362.33 98.0721C346.412 100.281 337.201 84.1151 335.612 76.8781L341.906 61.3991L352.439 76.6211L357.127 59.7941L367.66 74.2441L372.285 56.9671V56.9671ZM52.9592 58.2521C55.5832 58.2131 61.0992 58.7821 67.0892 59.7931C79.1552 61.8281 81.6042 62.8901 81.6042 66.1511C81.6042 70.6021 76.3632 71.0291 61.4372 67.6921C53.3892 65.8931 48.5112 61.4151 51.4182 58.5081C51.5752 58.3511 52.0852 58.2651 52.9592 58.2521V58.2521ZM280.572 59.7931C280.807 59.7741 281.076 59.7921 281.343 59.7931C285.077 59.8121 291.234 62.4351 291.234 64.3531C291.234 65.4541 288.46 68.8281 285.068 71.8031C277.935 78.0631 277.079 83.6641 283.013 85.5471C289.65 87.6541 285.613 90.5271 278.774 88.5661C270.469 86.1841 261.624 89.4791 250.002 99.2271C240.128 107.509 239.288 107.91 237.093 105.714C233.374 101.995 236.223 94.0071 243.644 87.3461C249.863 81.7631 251.356 79.1391 250.581 75.0781C249.665 70.2891 250.053 69.9741 255.526 71.2891C258.777 72.0701 263.978 74.0261 267.087 75.5931C272.291 78.2141 272.738 78.1141 272.738 74.4371C272.738 72.2401 273.267 68.9801 273.959 67.1791C274.878 64.7831 274.328 64.2581 271.904 65.1881C270.082 65.8871 268.628 67.7961 268.628 69.4921C268.628 71.6511 267.551 72.1261 265.032 71.0331C263.053 70.1761 256.348 68.3821 250.132 67.0521C243.915 65.7211 239.291 63.7891 239.856 62.7481C240.421 61.7071 249.207 60.7841 259.38 60.6931C269.553 60.6011 278.801 60.2361 279.932 59.9221C280.135 59.8641 280.337 59.8121 280.572 59.7931V59.7931ZM722.374 59.9861C722.9 59.9571 723.434 59.9751 724.044 59.9861C725.675 60.0171 727.655 60.1791 730.146 60.4361C736.238 61.0641 742.153 62.1601 743.312 62.8761C746.018 64.5481 746.068 73.6071 743.376 75.2721C740.163 77.2571 740.85 79.1331 747.551 86.6391C754.638 94.5771 756.739 100.721 754.872 108.155C753.383 114.091 752.985 114.116 743.376 109.054C739.42 106.97 734.796 105.162 733.101 105.072C731.405 104.982 728.23 103.585 726.036 101.926C722.241 99.0551 722.33 98.9071 728.156 98.9071C731.523 98.9071 737.705 100.621 741.9 102.761C746.095 104.9 749.543 106.056 749.543 105.329C749.54 102.687 730.897 80.3831 726.036 77.1991C723.289 75.3981 718.211 73.8931 714.732 73.7951C707.019 73.5761 706.779 71.5371 713.705 64.6101C716.841 61.4741 718.692 60.1901 722.374 59.9861V59.9861ZM115.514 63.9681C132.854 63.9681 134.461 64.5191 131.185 69.6841C129.399 72.4991 110.626 74.6271 102.669 72.8951C99.8182 72.2751 98.0442 70.3321 98.0442 67.8861C98.0452 64.2771 99.6252 63.9681 115.514 63.9681ZM156.618 63.9681C160.574 63.9681 163.811 64.8931 163.811 66.0231C163.811 67.1541 163.118 68.0631 162.27 68.0791C161.422 68.0951 158.843 68.6201 156.554 69.2351C154.265 69.8501 151.721 69.6691 150.902 68.8491C147.713 65.6591 149.727 63.9681 156.618 63.9681V63.9681ZM227.458 64.6101C228.363 64.5731 229.163 64.7491 229.77 65.1251C230.817 65.7711 231.127 67.1551 230.477 68.2071C228.966 70.6521 221.357 70.7041 221.357 68.2711C221.357 66.4611 224.742 64.7241 227.458 64.6101V64.6101ZM801.949 66.0231C805.905 66.0231 809.142 66.9481 809.142 68.0791C809.142 69.2091 805.905 70.1341 801.949 70.1341C797.993 70.1341 794.756 69.2091 794.756 68.0791C794.756 66.9471 797.993 66.0231 801.949 66.0231ZM750.761 66.7941C751.007 66.7821 751.314 66.8761 751.596 67.0511C752.727 67.7491 753.652 69.1341 753.652 70.1971C753.652 71.2601 752.727 72.1881 751.596 72.1881C750.466 72.1881 749.541 70.7391 749.541 68.9771C749.542 67.6551 750.025 66.8261 750.761 66.7941V66.7941ZM496.624 71.4821C498.489 77.4121 504.105 82.6851 508.763 87.2171L486.156 87.6031C490.109 83.7871 495.207 77.6311 496.624 71.4821V71.4821ZM555.326 71.6751C556.863 78.7371 561.504 85.5461 566.308 90.3641L540.425 88.1801C546.824 84.1261 551.304 78.3531 555.326 71.6751V71.6751ZM619.422 73.1521L668.426 82.0801L667.527 87.7961C663.293 95.0481 654.662 100.318 642.351 98.3291C627.451 95.4511 622.677 88.1911 621.157 82.7861L619.422 73.1521V73.1521ZM444.217 74.1801C446.342 79.7841 451.713 85.5791 455.97 89.1441L433.813 91.3281C437.57 87.4711 441.855 79.1541 444.217 74.1801ZM805.546 74.3721C810.915 74.2931 815.308 74.9941 815.308 75.9131C815.308 76.8321 812.699 80.0691 809.528 83.1061C806.358 86.1431 803.121 88.6291 802.336 88.6291C799.848 88.6291 800.805 85.1191 804.006 82.4641C807.119 79.8791 808.4 75.2901 805.547 76.9411C804.699 77.4311 802.155 77.0801 799.895 76.1701C796.92 74.9741 798.483 74.4771 805.546 74.3721V74.3721ZM496.753 75.9781C495.937 80.6681 492.739 82.9641 490.073 85.8041L503.689 85.7411C500.312 82.6091 497.888 79.3901 496.753 75.9781V75.9781ZM554.619 77.0691C552.515 81.9521 548.661 84.0521 545.242 86.8321L560.785 88.5021C558.047 85.2331 555.956 81.4601 554.619 77.0691ZM610.366 78.9961C612.379 85.7521 617.812 93.7251 622.312 99.0991L595.208 94.2821C600.678 90.6301 607.125 84.8741 610.366 78.9961V78.9961ZM678.702 78.9961C683.874 80.8641 686.939 84.1371 689.62 87.6671C686.817 89.4101 683.698 89.8841 680.628 90.5571C683.123 87.6941 681.489 83.5271 678.702 78.9961ZM444.281 79.1251C442.98 82.6531 441.088 85.9581 438.95 89.2081L450.575 87.7951C447.823 85.4031 445.921 82.3511 444.281 79.1251ZM674.527 80.0241C677.172 80.8631 677.257 82.8061 677.61 85.4201C677.61 88.1791 676.684 91.0151 675.554 91.7141C674.952 92.0861 674.566 91.4321 673.756 91.2641C674.02 87.3691 674.164 83.8401 674.527 80.0241V80.0241ZM794.756 80.4091C797.017 80.4091 798.819 81.1021 798.802 81.9501C798.785 82.7991 798.026 84.5901 797.132 85.9971C795.873 87.9791 794.989 88.0281 793.086 86.1251C789.473 82.5131 790.102 80.4091 794.756 80.4091ZM384.68 82.0791C385.291 87.5221 391.023 92.5291 394.955 95.7591L374.66 99.2271C378.632 94.5671 383.4 88.3551 384.68 82.0791V82.0791ZM609.788 84.1341C607.696 87.1271 602.74 91.5291 599.513 93.3831L617.175 96.2081C614.851 93.4831 611.017 87.6851 609.788 84.1341ZM906.636 84.6491C906.786 84.6531 906.906 84.6951 907.021 84.7121C908.416 84.9251 907.407 87.1011 904.067 90.6861C898.786 96.3551 885.089 100.676 868.037 102.053C859.932 102.708 850.556 103.702 847.164 104.237C843.773 104.772 839.381 105.692 837.402 106.293C832.047 107.919 833.042 103.879 839.2 99.0351C846.19 93.5371 854.7 91.3661 880.689 88.5661C892.353 87.3101 903.22 85.7831 904.837 85.1631C905.338 84.9711 905.759 84.7861 906.122 84.7131C906.303 84.6761 906.485 84.6441 906.636 84.6491ZM384.552 87.4101C383.694 91.1401 381.49 93.9741 378.965 96.5941L390.91 94.6031C388.181 93.1141 386.161 90.5781 384.552 87.4101V87.4101ZM336.447 89.5291C338.437 94.6521 345.949 100.179 350.128 102.566L337.732 106.035L336.447 89.5291V89.5291ZM192.134 90.2361C192.398 90.2371 192.584 90.4301 192.584 90.8791C192.584 95.3331 186.658 101.72 178.775 105.779C175.158 107.641 171.175 109.182 169.912 109.182C166.175 109.182 169.765 100.361 175.692 94.9891C181.483 89.7411 184.029 91.8401 180.316 98.7781C176.362 106.167 181.831 103.478 187.381 95.3101C189.542 92.1301 191.344 90.2351 192.134 90.2361V90.2361ZM514.478 92.9331C543.424 93.1121 565.833 95.4151 600.54 101.026C643.449 107.963 665.536 112.778 665.536 116.054C665.536 118.097 665.898 119.545 662.71 118.751C660.166 118.118 646.332 115.237 632.011 112.394C542.164 94.5491 479.05 92.5321 402.985 105.136C389.277 107.407 369.125 111.427 358.22 114.063C347.317 116.7 337.89 118.064 337.282 117.083C335.658 114.454 343.628 111.966 372.413 106.036C413.452 97.5811 439.254 94.7031 485.514 93.3841C491.184 93.2221 496.539 93.0641 501.634 92.9981C506.092 92.9411 510.344 92.9071 514.478 92.9331V92.9331ZM686.088 93.1261C687.206 93.0061 687.363 93.7481 686.665 95.5661C685.227 99.3161 683.605 99.5801 681.72 96.5291C681.022 95.3991 679.832 94.7961 680.372 94.7961C680.911 94.7961 682.81 94.2021 684.61 93.5111C685.21 93.2811 685.715 93.1651 686.088 93.1261ZM666.691 94.7961L665.856 108.09L650.122 104.365C654.971 102.891 663.978 99.1441 666.691 94.7961V94.7961ZM676.389 95.0531C679.57 95.1051 682.15 99.3981 684.931 102.246C684.262 105.316 680.827 106.807 678.38 108.86C678.782 105.627 680.394 103.666 675.746 95.1161C675.965 95.0811 676.178 95.0491 676.389 95.0531V95.0531ZM338.246 95.1811L338.76 104.109L346.017 101.925C342.167 100.458 340.146 98.8321 338.246 95.1811V95.1811ZM329.383 96.8511C329.879 96.8511 330.282 98.9901 330.282 101.604C330.282 104.217 325.909 112.165 320.584 119.33C309.777 133.873 309.328 137.192 313.969 168.398C315.202 176.689 315.886 183.822 315.511 184.197C313.465 186.243 302.914 155.918 302.344 146.369C301.716 135.837 305.5 123.569 309.345 123.569C310.206 123.569 314.855 117.557 319.685 110.211C324.515 102.862 328.887 96.8511 329.383 96.8511V96.8511ZM664.764 99.3561C662.308 102.029 659.471 103.003 655.837 104.301L663.993 105.842L664.764 99.3561V99.3561ZM192.777 101.988C197.766 102.125 252.519 120.04 267.277 126.458C274.629 129.655 284.855 138.962 285.003 142.579C285.039 143.449 281.399 142.331 276.975 140.074C272.55 137.816 264.882 135.027 259.891 133.908C254.9 132.79 249.024 131.26 246.853 130.505C236.632 126.949 258.78 140.602 272.478 146.304C292.051 154.452 296.826 157.674 300.544 164.866C305.014 173.509 304.396 173.673 293.929 166.471C286.027 161.033 252.638 149.124 250.706 151.057C250.407 151.356 258.414 155.224 268.496 159.663C288.294 168.38 293.349 171.979 302.022 183.361C309.999 193.83 308.968 195.111 299.517 186.573C295.058 182.544 287.431 178.25 282.561 177.003C277.693 175.757 271.219 173.909 268.11 172.893C258.318 169.692 261.928 172.517 277.359 180.215C285.554 184.303 294.892 190.134 298.104 193.124C305.884 200.368 312.183 212.989 311.398 219.777C310.782 225.115 310.534 224.97 304.206 215.859C300.622 210.7 294.139 204.117 289.755 201.215C282.812 196.621 254.476 185.072 250.513 185.223C250.749 185.749 256.409 189.192 263.936 193.187C292.03 208.101 299.949 216.693 302.342 234.741C304.257 249.176 302.328 250.565 293.03 241.485C284.292 232.953 283.29 233.346 288.405 243.347C293.86 254.012 303.269 265.297 322.252 283.872L340.106 301.342L341.133 320.866C341.717 331.604 343.696 348.159 345.5 357.667C347.305 367.174 348.415 375.24 348.005 375.649C347.596 376.059 345.901 375.911 344.216 375.264C340.187 373.718 336.991 362.869 337.536 352.657C337.776 348.165 337.015 337.564 335.866 329.087C332.348 303.122 326.749 298.282 278.899 280.533C258.44 272.944 258.31 272.908 256.163 264.541C252.754 251.253 252.481 251.233 252.309 264.669L252.181 277.386L259.374 279.762C263.33 281.068 266.539 282.728 266.503 283.488C266.314 287.497 241.153 307.8 228.546 314.123C219.869 318.476 199.23 324.977 193.993 324.977C191.943 324.977 190.389 322.018 189.433 316.243C188.637 311.438 187.182 305.999 186.222 304.169C183.406 298.798 171.186 293.997 164 295.434C156.258 296.983 155.564 300.316 162.973 300.316C170.085 300.316 179.356 305.956 182.112 312.004C187.591 324.027 181.214 357.631 162.524 415.15C154.992 438.329 154.356 443.383 158.285 448.546C159.699 450.404 177.473 457.184 197.783 463.639C218.889 470.348 236.673 477.244 239.337 479.695C243.298 483.34 254.237 503.179 254.237 506.734C254.237 507.369 252.359 507.89 250.127 507.89C247.825 507.89 244.763 505.445 242.998 502.238C241.287 499.13 236.859 493.202 233.171 489.136C227.198 482.55 223.468 480.904 198.747 474.043C183.487 469.809 164.893 464.614 157.451 462.482L143.899 458.628L144.862 446.746C145.381 440.223 146.523 433.469 147.431 431.718C148.339 429.967 149.643 422.569 150.321 415.277L151.541 402.047L146.274 418.488C143.361 427.531 140.434 439.262 139.787 444.563C139.114 450.085 137.409 454.649 135.741 455.289C130.632 457.25 130.683 451.646 135.998 436.021C138.845 427.651 141.146 417.057 141.136 412.451C141.106 398.064 138.615 382.174 136.255 381.495C111.977 374.514 99.5632 367.821 87.2522 355.227C80.0402 347.848 79.7482 337.214 86.4172 324.72C93.7712 310.942 109.812 288.773 116.474 283.166C121.975 278.537 138.003 271.282 162.395 262.357C169.573 259.73 173.976 256.377 178.258 250.218C181.512 245.539 186.563 238.503 189.497 234.547C192.432 230.591 198.564 221.325 203.177 213.995C213.373 197.794 215.253 196.359 229.573 193.057L240.876 190.424L229.573 188.754C215.994 186.774 211.129 182.497 209.599 171.092C208.325 161.593 208.975 161.126 216.343 165.954C221.111 169.078 248.07 177.373 248.07 175.716C248.07 175.308 240.677 171.242 231.693 166.725C215.718 158.693 200.801 147.614 200.801 143.796C200.801 142.736 202.725 142.908 205.104 144.182C209.899 146.748 242.448 156.547 243.318 155.678C243.623 155.373 236.464 152.038 227.39 148.292C206.464 139.652 195.82 131.954 190.525 121.574L186.35 113.353L196.433 119.262C205.238 124.453 235.645 134.575 237.344 132.877C237.685 132.536 231.716 129.755 224.114 126.711C203.464 118.444 186.847 105.513 192.451 102.049C192.51 102.02 192.616 101.985 192.777 101.988V101.988ZM674.527 103.338C674.6 103.355 674.634 103.444 674.719 103.53C675.402 104.213 675.505 106.028 674.911 107.511C674.438 108.695 673.598 109.051 673.37 108.089C672.835 106.286 673.389 104.916 673.562 103.401C673.161 103.376 674.453 103.32 674.527 103.338ZM512.231 104.301C545.123 104.379 556.95 105.332 581.015 108.989C613.307 113.896 662.419 124.113 664.7 126.394C668.1 129.793 661.924 129.613 645.433 125.816C589.458 112.928 549.93 108.442 494.697 108.668C446.737 108.864 413.132 112.522 369.202 122.412C356.247 125.329 344.077 128.215 342.099 128.835C338.442 129.981 337.027 126.748 340.3 124.725C343.966 122.459 399.818 110.779 421.673 107.705C436.922 105.559 461.442 104.483 496.752 104.365C502.408 104.346 507.532 104.29 512.231 104.301ZM871.054 107.512C871.996 107.517 872.874 107.56 873.688 107.576C876.941 107.641 878.963 107.92 878.955 108.411C878.825 115.728 865.95 120.965 842.025 123.439C831.837 124.494 822.467 126.005 821.216 126.779C819.965 127.553 820.529 125.771 822.436 122.861C827.826 114.636 840.868 109.624 861.036 108.025C863.511 107.83 865.898 107.647 868.036 107.576C869.105 107.54 870.112 107.507 871.054 107.512V107.512ZM672.857 112.907C673.766 113.064 673.76 113.099 675.811 113.099C679.456 113.099 679.747 113.606 677.61 116.182C675.679 118.507 675.58 119.954 677.352 122.09C679.199 124.316 678.818 125.154 675.554 126.008C673.295 126.599 673.378 125.813 672.022 125.751C672.165 121.87 672.313 116.45 672.857 112.907V112.907ZM329.383 115.926C330.863 115.446 332.377 129.986 334.007 159.984C337.986 233.209 340.399 274.086 341.265 283.36C341.713 288.165 341.371 292.094 340.494 292.094C337.547 292.094 307.904 263.117 306.583 258.954C305.835 256.596 306.973 251.177 309.28 246.237C311.496 241.495 313.942 234.571 314.739 230.887C315.537 227.204 317.966 223.249 320.135 222.088C325.263 219.344 325.244 212.711 319.814 179.571C317.278 164.096 315.932 149.246 316.603 143.413C317.748 133.442 325.29 117.252 329.383 115.926ZM685.381 117.402C688.559 117.402 698.417 148.748 699.446 162.167C700.109 170.813 699.351 176.072 696.492 182.142L692.574 190.363L691.096 181.629C690.265 176.857 687.869 167.319 685.766 160.37C682.273 148.832 682.2 147.3 685.123 142.837C688.202 138.138 688.108 132.708 684.738 122.028C683.869 119.271 684.114 117.402 685.381 117.402V117.402ZM495.468 117.596C527.824 117.664 561.172 120.399 596.558 125.752C622.935 129.742 662.221 138.301 664.508 140.588C665.148 141.228 664.195 171.164 662.389 207.125C660.583 243.086 658.584 285.98 657.957 302.37C655.499 366.597 650.133 394.984 634.387 426.838C626.582 442.625 620.384 451.617 608.44 464.474C589.239 485.142 577.705 495.042 552.289 505.291C533.814 512.741 527.062 515.05 502.746 515.131C476.098 515.221 454.971 509.701 427.198 490.998C404.086 475.434 387.911 457.095 375.818 432.682C355.789 392.247 350.36 360.775 344.605 252.018C343.348 228.281 341.489 195.738 340.43 179.702C339.371 163.665 338.503 148.138 338.503 145.213C338.503 138.632 341.887 137.154 372.991 130.506C413.874 121.766 453.868 117.507 495.468 117.596V117.596ZM862.898 126.715C864.138 126.632 864.632 127.173 864.632 128.449C864.632 133.709 856.278 141.726 847.612 144.827C842.82 146.541 832.236 148.442 824.041 149.065C806.886 150.371 804.853 148.022 814.793 138.083C819.769 133.107 822.699 132.2 837.722 130.89C847.19 130.065 857.094 128.561 859.75 127.55C861.094 127.04 862.154 126.766 862.898 126.715ZM677.738 132.881C679.932 134.867 683.982 135.925 684.161 138.918C680.692 144.522 676.751 146.586 672.728 148.038C675.31 143.895 679.489 142.046 677.738 132.881ZM672.279 134.422C672.928 134.489 673.446 135.046 673.82 135.386C675.594 137.159 675.316 138.852 673.949 142.45C673.369 143.976 673.114 144.512 671.829 144.762C671.537 141.366 671.436 137.95 671.573 134.55C671.822 134.447 672.062 134.4 672.279 134.422V134.422ZM677.224 150.157C677.337 150.166 677.391 150.219 677.416 150.286C679.189 154.995 686.339 173.846 686.601 198.005C686.72 209.024 687.551 218.041 688.399 218.043C689.247 218.045 689.941 221.408 689.941 225.493C689.941 229.578 691.871 236.745 694.244 241.421C696.617 246.096 700.27 253.328 702.4 257.477C705.949 264.388 706.049 265.741 703.299 273.534C701.649 278.213 696.889 288.424 692.766 296.269C688.643 304.116 684.59 310.591 683.71 310.591C682.83 310.591 681.194 307.902 680.05 304.618C678.606 300.476 675.62 297.765 670.416 295.884L663.672 293.186L664.507 278.736C665.129 270.795 666.171 239.841 667.398 209.887C668.625 179.932 670 154.309 670.417 152.984C670.729 151.99 672.008 151.369 673.563 151.379C673.952 151.381 675.79 150.452 676.774 150.223C676.939 150.184 677.111 150.149 677.224 150.157V150.157ZM844.016 153.497C845.692 153.434 846.135 154.268 846.135 156.13C846.135 166.451 834.553 173.801 815.307 175.783C807.96 176.54 799.406 177.692 796.297 178.288C789.64 179.563 789.265 178.006 794.498 170.067C800.821 160.475 808.815 156.466 821.473 156.451C827.698 156.444 835.789 155.576 839.455 154.524C841.579 153.916 843.011 153.535 844.016 153.497V153.497ZM220.457 205.777C220.101 205.777 216.822 212.019 213.2 219.649C209.578 227.279 203.684 236.655 200.098 240.522L193.611 247.523L201.382 243.091C211.497 237.322 212.6 237.472 222.32 245.788C226.815 249.634 230.791 252.475 231.183 252.082C231.575 251.689 228.994 247.357 225.403 242.448C219.206 233.976 218.88 232.815 219.944 219.648C220.56 212.019 220.814 205.777 220.457 205.777V205.777ZM787.241 237.695C786.64 237.752 786.535 238.636 786.535 240.136C786.535 243.298 784.16 246.019 778.828 248.935L771.121 253.109L779.342 251.954C784.843 251.181 791.303 252.145 798.866 254.844C812.037 259.543 813.678 259.864 808.178 256.514C805.967 255.167 800.187 249.91 795.333 244.826C790.509 239.771 788.244 237.602 787.241 237.695ZM745.046 247.009C744.148 247.168 742.142 250.399 739.458 256.193C736.301 263.012 728.563 274.354 722.246 281.433C715.929 288.513 708.78 297.734 706.318 301.921C703.289 307.072 707.349 303.646 718.97 291.26C743.439 265.18 746.545 260.15 745.559 247.907C745.508 247.268 745.345 246.955 745.046 247.009V247.009ZM264.002 249.963L265.479 256.065C267.575 265.125 269.653 266.927 290.077 276.681C300.311 281.568 309.165 285.609 309.73 285.672C311.614 285.883 302.651 279.514 293.288 273.983C283.439 268.166 277.322 263.381 269.14 255.101L264.002 249.963V249.963ZM276.397 283.873L284.425 286.699C300.694 292.439 317.635 302.375 323.667 309.691C331.219 318.853 333.098 326.668 333.493 350.667C333.973 379.852 337.376 388.984 350.513 396.974C354.232 399.236 357.062 403.528 358.798 409.433C365.626 432.653 386.631 466.076 404.527 482.2C415.165 491.786 438.914 506.694 451.989 512.001C458.474 514.634 475.881 518.616 482.046 520.671C479.991 520.671 276.527 520.671 272.417 520.671C267.622 516.674 256.278 500.203 253.92 493.44C251.524 486.568 248.539 482.148 240.882 474.044C238.083 471.081 229.231 467.844 213.137 463.961C185.458 457.282 164.557 446.933 162.528 438.849C161.684 435.487 164.126 425.017 169.592 408.599C174.186 394.802 180.217 374.766 183.015 364.028C190.481 335.367 191.308 333.773 199.135 332.108C208.745 330.063 234.066 318.179 243.322 311.363C247.614 308.203 256.799 300.701 263.745 294.729L276.397 283.873V283.873ZM756.414 286.186C755.938 286.226 757.202 287.839 759.56 290.104C762.255 292.692 767.804 295.964 771.891 297.425C781.193 300.749 820.653 301.201 822.629 298.003C823.4 296.755 827.855 294.02 832.52 291.901C843.602 286.869 839.415 286.98 817.62 292.287C797.191 297.261 779.91 296.758 767.011 290.874C762.49 288.812 757.865 286.734 756.736 286.25C756.594 286.19 756.481 286.18 756.414 286.186ZM174.665 289.461C174.09 289.44 173.588 289.474 173.188 289.525C172.449 289.62 172.032 289.868 172.032 290.231C172.032 291.242 173.682 292.093 175.693 292.093C177.704 292.093 182.558 294.392 186.483 297.232C193.367 302.211 194.387 302.323 216.091 301.15C232.664 300.254 240.693 298.896 246.598 295.883C256.458 290.853 255.579 288.794 245.378 293.057C236.701 296.683 202.136 297.374 193.484 294.084C186.633 291.481 178.69 289.609 174.665 289.461V289.461ZM891.221 294.15L901.754 298.26C935.005 311.366 951.897 345.841 938.555 373.404C932.973 384.933 918.945 397.821 889.808 418.232C880.497 424.754 872.344 430.929 871.697 431.976C870.083 434.587 867.179 434.336 865.403 431.462C863.69 428.691 869.545 423.384 892.891 406.479C918.222 388.136 925.961 380.831 930.398 371.091C940.637 348.616 930.016 323.01 905.222 310.334C901.006 308.179 896.177 303.624 894.432 300.251L891.221 294.15V294.15ZM738.495 294.406L748.77 301.599C755.916 306.579 763.705 309.689 774.332 311.874C796.275 316.389 811.559 322.936 814.665 329.087C816.237 332.201 817.279 342.416 817.298 355.033C817.323 372.281 818.418 379.281 823.527 395.881C831.087 420.438 831.923 442.017 825.775 454.069C821.865 461.733 806.155 475.382 784.736 489.778C775.549 495.952 772.715 496.92 769.45 495.173C766.995 493.86 760.293 493.597 752.174 494.467C735.959 496.203 726.481 503.194 726.099 513.67L726.613 520.67C662.451 520.565 587.308 520.148 523.149 520.67C535.48 518.615 538.601 516.89 544.536 514.954C593.87 498.864 636.81 453.323 651.92 401.148L656.352 385.862L665.986 385.477C681.439 384.826 690.089 372.833 685.832 357.989C684.322 352.727 684.602 349.46 686.924 344.565C690.602 336.815 718.359 308.313 730.147 300.186L738.495 294.406V294.406ZM664.958 298.389C667.775 298.279 668.127 300.415 669.71 303.398C671.462 307.242 671.86 310.039 669.71 313.674C666.053 319.86 662.745 318.186 662.774 317.528L663.608 298.582C664.123 298.471 664.554 298.404 664.958 298.389V298.389ZM671.765 300.765C676.015 301.538 678.693 306.062 680.371 312.968C677.78 314.775 675.189 314.987 672.6 315.472C674.89 312.772 676.314 309.328 671.765 300.765ZM902.974 314.894C905.328 314.646 916.159 321.211 920.186 325.492C926.193 331.875 930.387 342.527 930.334 351.375C930.281 359.938 923.904 375.245 917.553 382.01C915.165 384.554 912.498 386.634 911.58 386.634C909.473 386.634 905.074 376.133 901.946 363.577C899.84 355.124 900.057 352.602 903.68 343.411C907.463 333.812 907.562 332.111 904.9 324.271C903.296 319.547 902.299 315.389 902.652 315.023C902.73 314.943 902.817 314.91 902.974 314.894V314.894ZM886.597 315.729L884.221 327.033C881.85 338.299 876.131 349.45 864.696 365.054C861.384 369.575 858.073 376.049 857.375 379.441C856.168 385.305 856.236 385.355 859.302 381.56C861.074 379.366 862.577 376.596 862.577 375.394C862.577 374.193 867.985 367.563 874.651 360.623C888.019 346.705 890.543 340.167 888.138 325.3L886.597 315.729V315.729ZM76.6582 320.674C77.5072 320.677 78.1962 320.863 78.6492 321.317C80.7602 323.428 76.6602 329.379 71.1352 332.235C67.9372 333.889 63.8442 335.254 62.0152 335.254C59.1882 335.254 59.3772 334.326 63.1072 329.089C66.3482 324.535 72.9812 320.665 76.6582 320.674V320.674ZM101.577 323.565C101.499 323.524 101.397 323.583 101.32 323.629C100.704 323.998 100.089 327.206 99.2652 333.391C97.6242 345.71 101.477 350.685 120.266 360.558C128.072 364.66 135.647 369.477 137.093 371.219C138.539 372.962 140.079 373.949 140.561 373.467C142.705 371.323 135.309 363.687 124.248 356.641C109.415 347.191 105.135 341.891 103.375 330.886C102.649 326.344 102.118 323.854 101.577 323.565V323.565ZM663.48 341.29C663.641 341.311 663.774 341.419 664.186 341.419C668.88 341.419 672.011 348.849 669.389 353.75C666.706 358.762 665.238 357.025 660.397 356.641C660.756 351.677 661.53 346.383 662.709 341.547C663.161 341.319 663.319 341.269 663.48 341.29ZM676.197 348.869C678.845 349.003 680.817 349.815 682.683 350.731C681.704 353.859 679.506 357.407 675.362 358.952L664.443 359.979C666.982 358.385 670.267 358.088 672.279 356.319C674.387 354.762 675.853 351.799 676.197 348.869ZM666.434 363.255C667.12 363.274 666.559 363.453 667.398 363.576C674.698 364.647 675.566 370.18 669.389 376.357C664.833 380.912 660.948 379.774 657.121 379.054C657.916 374.11 658.693 368.66 659.754 363.769C661.342 363.431 664.361 363.2 666.434 363.255ZM679.022 365.054C681.001 364.999 682.924 365.338 684.802 365.889C684.334 371.468 681.483 375.259 677.866 378.477C672.599 382.641 667.599 382.024 662.515 382.909C666.178 380.837 669.951 378.984 673.241 376.165C677.157 371.516 677.193 368.344 677.031 365.247C677.707 365.134 678.363 365.072 679.022 365.054V365.054ZM894.883 365.118L900.278 376.935C903.252 383.437 905.737 389.676 905.737 390.743C905.737 391.81 900.867 395.941 894.947 399.928C889.028 403.914 883.711 407.098 883.13 407.057C882.55 407.016 879.424 404.818 876.194 402.176C868.664 396.017 869.761 392.634 883.965 377.128L894.883 365.118V365.118ZM101.513 377.642C106.358 377.372 122.508 382.06 128.359 385.798C130.902 387.424 132.983 390.126 132.983 391.772C132.983 397.91 85.6872 424.685 67.9872 428.573C53.4082 431.774 47.0732 445.385 46.7932 474.173C46.6652 487.35 49.7032 493.695 60.4732 502.367C63.0322 504.427 65.1612 506.971 65.1612 508.018C65.1612 509.067 62.4622 509.945 59.1882 509.945C52.1592 509.945 40.5192 498.041 40.4352 490.806C39.7712 433.727 39.9562 429.68 43.2612 430.949C44.7902 431.536 51.4952 428.431 58.1612 424.012C64.8272 419.593 74.2302 413.932 79.0342 411.489C83.8382 409.046 87.7682 406.163 87.7682 405.066C87.7682 403.97 77.9512 408.166 65.9962 414.378C49.6842 422.856 43.4002 425.215 40.8202 423.755C38.0682 422.198 40.7022 420.282 53.8582 414.378C80.9212 402.233 82.7162 401.067 91.0442 390.23C95.4472 384.501 99.5952 379.058 100.228 378.091C100.398 377.833 100.821 377.681 101.513 377.642V377.642ZM340.751 378.155C343.513 378.504 346.274 381.223 349.036 379.054L351.733 393.89C346.883 389.665 342.839 384.748 340.751 378.155ZM133.947 401.02C136.761 401.02 134.544 426.314 130.543 439.812C126.382 453.849 126.291 455.163 129.451 457.473C131.328 458.846 152.817 465.659 177.234 472.63C218.78 484.493 222.156 485.799 228.999 492.989C233.02 497.215 237.569 503.717 239.146 507.439C240.724 511.163 243.337 514.705 244.99 515.339C246.643 515.973 248.364 519.679 247.752 520.669C245.697 520.669 208.99 520.678 163.489 520.669H81.2812L79.2262 518.614C77.2272 515.229 70.2542 505.719 66.8302 503.2C54.6412 494.228 49.5592 477.286 53.1502 457.536C56.0662 441.499 61.9082 435.255 79.3542 429.534C91.6412 425.505 103.496 419.357 125.21 405.771C129.427 403.136 133.357 401.02 133.947 401.02V401.02ZM868.229 404.552C869.339 404.514 870.731 405.114 872.403 406.286C874.891 408.028 876.964 410.088 876.964 410.91C876.964 411.732 874.19 414.045 870.798 416.048L864.633 419.709V413.929C864.667 407.686 865.785 404.636 868.229 404.552V404.552ZM915.948 407.314L925.71 412.067C931.087 414.698 940.222 418.528 946.005 420.545L956.538 424.205L959.172 438.784C961.906 454.087 962.603 492.782 960.327 503.138C959.046 508.974 959.211 509.238 965.723 508.661C969.445 508.332 970.912 508.51 968.934 509.11C966.956 509.712 965.337 510.957 965.337 511.872C965.337 512.788 963.256 514.224 960.713 515.019C947.176 519.253 936.001 516.209 934.83 508.018C934.257 504 934.792 503.466 937.913 504.743C946.31 508.179 947.839 507.162 948.574 497.614C948.966 492.528 948.145 480.505 946.776 470.896C943.924 450.895 936.736 438.597 924.233 432.554C914.252 427.73 901.626 419.231 901.626 417.333C901.626 416.464 904.807 413.882 908.755 411.553L915.948 407.314V407.314ZM892.762 421.893C896.962 421.603 902.556 424.489 912.286 431.077C933.848 445.675 940.722 455.659 945.041 478.732C947.637 492.594 945.777 502.32 940.866 500.761C938.934 500.148 932.192 499.37 925.838 499.091C916.15 498.665 913.424 499.37 909.14 503.394C906.33 506.034 903.442 511.351 902.717 515.211C901.497 521.715 901.166 520.856 894.112 520.799L880.945 520.735C884.956 519.512 888.664 518.297 892.121 516.047C900.774 508.487 911.902 489.601 911.902 479.054C911.902 476.708 913.376 471.941 915.177 468.456L918.452 462.098L912.607 463.576C909.392 464.374 904.857 466.794 902.524 468.971C900.19 471.149 897.331 472.953 896.166 472.953C891.144 472.953 887.238 480.706 887.238 490.743C887.238 503.607 883.219 507.891 871.053 507.891C855.71 507.891 848.018 494.76 851.144 473.915C852.263 466.451 854.11 463.436 860.649 458.181C867.078 453.015 868.742 450.322 868.742 445.015C868.742 439.666 870.095 437.468 875.55 434.096C879.298 431.78 884.069 428.044 886.147 425.747C888.254 423.419 890.243 422.067 892.762 421.893V421.893ZM908.562 469.484C909.583 469.371 909.369 471.015 908.626 475.264C904.403 499.411 899.541 508.787 888.267 514.505C873.09 522.201 858.912 519.952 847.805 508.147C838.896 498.677 835.106 483.082 840.419 477.768C843.107 475.08 843.583 475.819 844.722 484.126C846.287 495.547 850.076 503.166 859.43 507.825C868.074 512.131 873.02 513.037 881.973 508.789C890.378 504.8 893.385 498.462 891.927 487.595C890.619 477.84 894.397 475.678 896.872 484.769C898.355 490.217 898.475 490.09 899.506 482.393C900.203 477.186 902.208 473.337 905.222 471.346C906.923 470.222 907.949 469.551 908.562 469.484ZM830.721 485.282C832.459 485.282 833.804 487.083 833.804 489.457C833.804 495.83 839.63 506.133 846.842 512.449C850.063 516.355 855.912 518.579 860.071 520.605C858.016 520.605 848.553 520.669 837.592 520.669H819.095L819.416 516.174C819.416 512.352 817.786 509.034 815.049 507.118C810.797 504.139 810.787 503.979 814.535 498.897C816.635 496.049 820.47 492.581 823.013 491.19C825.557 489.798 827.637 487.89 827.637 486.951C827.637 486.012 829.026 485.282 830.721 485.282V485.282ZM762.514 495.944C764.103 499.236 764.56 502.755 763.349 506.605C758.746 506.363 756.46 511.086 753.715 514.827C754.161 505.049 756.481 497.898 762.514 495.944V495.944ZM747.165 497.613C748.216 501.233 748.327 503.538 748.257 506.604C743.903 506.839 741.675 515.048 739.716 517.715C739.823 508.182 742.298 499.867 747.165 497.613V497.613ZM913.572 501.659C914.747 504.582 915.786 507.518 914.214 510.715C910.703 511.829 907.193 514.022 903.682 518.486C904.786 512.034 908.862 506.726 913.572 501.659ZM920.123 501.724C921.253 501.724 922.178 502.125 922.178 502.623C922.178 503.121 921.253 504.108 920.123 504.807C918.992 505.505 918.067 505.04 918.067 503.844C918.067 502.647 918.992 501.724 920.123 501.724ZM735.22 501.853C736.431 504.071 737.195 506.401 736.183 509.174C731.767 510.362 730.309 514.139 727.962 517.138C727.863 511.129 730.649 505.145 735.22 501.853V501.853ZM927.509 501.981C928.146 505.064 928.697 508.147 927.958 511.23C923.002 512.406 918.146 513.786 915.113 518.808C918.022 511.434 922.078 505.715 927.509 501.981V501.981ZM808.629 504.614C813.74 508.918 818.359 513.32 816.593 519C814.476 515.526 811.817 512.798 807.473 512.385C807.354 509.627 807.119 506.83 808.629 504.614ZM973.236 506.605C976.918 511.529 977.761 516.047 977.54 520.414C976.137 517.328 974.341 514.456 969.897 513.028C971.534 511.323 973.233 509.671 973.236 506.605ZM258.093 509.688C261.475 512.963 264.262 516.239 265.672 519.514H252.442C251.2 516.652 249.295 513.953 246.469 511.487C250.871 511.678 255.241 511.82 258.093 509.688V509.688ZM749.348 510.073C750.84 510.062 751.596 511.765 751.596 515.083C751.596 519.193 750.446 519.012 750.569 520.349C748.137 520.349 742.607 520.427 741.513 520.286C741.481 519.206 741.805 515.883 744.532 513.157C746.562 511.126 748.188 510.081 749.348 510.073ZM762.836 510.844C768.728 511.595 773.216 514.528 773.562 520.349C769.041 520.372 756.794 520.411 753.91 520.542C753.872 519.15 757.477 512.531 761.039 511.165C761.548 510.969 762.184 510.829 762.836 510.844ZM69.1442 511.807C72.0362 514.527 74.5142 517.245 75.0532 519.964L60.4742 519.835C58.0742 517.831 56.4872 515.556 55.2722 513.156C60.2892 513.691 64.9182 513.253 69.1442 511.807V511.807ZM735.155 512.128C736.343 512.128 737.211 513.467 737.211 516.11C737.211 517.783 737.049 519.69 736.89 520.542C734.74 520.633 733.098 520.524 729.953 520.542C729.83 519.251 729.851 518.34 731.045 516.11C732.459 513.467 733.968 512.128 735.155 512.128ZM912.287 514.248C912.576 514.234 912.83 514.276 912.994 514.44C913.558 515.004 913.321 518.62 912.608 520.477C910.848 520.398 907.079 520.914 905.736 520.413C904.971 518.47 910.263 514.34 912.287 514.248V514.248ZM924.49 516.367C929.312 516.177 934.509 517.514 934.509 520.221C934.509 521.329 930.571 520.864 925.39 520.864C918.768 520.864 915.925 521.513 916.527 519.708C917.22 517.624 920.739 516.515 924.49 516.367V516.367ZM805.995 516.432C810.164 516.333 814.085 517.56 813.317 519.835C813.135 520.373 809.025 520.655 805.224 520.606C802.415 520.57 799.716 520.662 798.93 520.286C796.439 519.094 797.154 518.1 801.498 517.011C803.053 516.619 804.605 516.464 805.995 516.432ZM968.42 518.165C971.246 518.165 973.558 519.09 973.558 520.221C973.558 521.351 971.246 521.12 968.42 521.12C965.594 521.12 963.282 521.35 963.282 520.221C963.282 519.09 965.594 518.165 968.42 518.165ZM13.4612 537.111H995.844V553.553H13.4612V537.111Z" fill="black"/>
<g id="g8203">
<g id="g1339">
<path id="path1341" d="M429.192 392.019C429.103 391.385 429.01 390.703 429.01 390.703C429.01 390.703 425.02 392.034 420.688 392.034C419.158 392.034 415.35 391.924 413.526 390.202C410.189 387.051 409.028 381.373 409.028 381.373C409.028 381.373 405.829 394.866 420.356 394.866C430.294 394.866 429.341 393.096 429.341 393.096C429.341 393.096 429.269 392.576 429.192 392.019Z" fill="#FF3000"/>
</g>
<path id="lion3" d="M386.691 412.518L401.469 413.441L435.646 435.609L419.943 447.616C419.943 447.616 395.928 439.63 396.851 458.103L427.931 458.648L476.283 447.616V442.075C476.283 442.075 489.216 441.15 491.989 441.15C494.756 441.15 537.244 420.831 537.244 420.831L540.941 421.756L537.244 447.616L523.391 446.695C519.588 448.469 518.395 452.525 517.849 455.93H551.101C551.101 455.93 552.023 445.77 554.794 441.15C557.564 436.533 565.88 426.372 565.88 426.372C565.88 426.372 575.114 439.305 596.356 445.77C581.085 446.364 584.353 455.93 584.353 455.93L610.214 456.852C610.214 456.852 612.058 436.533 611.136 436.533C610.214 436.533 608.202 430.285 598.205 433.761C598.313 427.457 595.379 405.891 587.121 405.13C591.905 400.455 598.044 397.195 596.356 383.885C591.74 366.336 570.496 370.032 570.496 370.032L517.848 384.809C517.848 384.809 497.53 390.351 494.756 384.809C491.988 379.267 499.377 369.108 499.377 369.108C499.377 369.108 479.055 374.65 482.75 387.581C486.447 400.511 512.306 394.969 512.306 394.969L565.88 379.267C565.88 379.267 589.89 375.573 588.046 389.427C586.201 403.281 580.656 398.663 580.656 398.663C580.656 398.663 576.04 394.044 566.804 394.969C557.565 395.895 482.751 410.67 476.284 403.282C477.645 391.657 463.356 376.497 463.356 376.497L468.897 369.108L455.044 372.802C455.044 372.802 440.264 366.336 418.097 380.192C416.797 386.873 418.097 389.427 418.097 389.427C418.097 389.427 429.182 383.885 429.182 393.122C429.182 402.357 421.791 395.895 421.791 395.895V405.13C421.791 405.13 435.648 403.281 435.648 401.434C435.648 399.588 433.473 409.583 433.473 409.583L414.403 408.823C414.402 408.824 393.157 390.351 386.691 412.518V412.518Z" fill="black"/>
<g id="g1344">
<path id="path1346" d="M440.131 376.568L434.357 381.012C434.357 381.012 429.668 377.143 435.133 376.347C440.466 375.57 440.131 376.568 440.131 376.568V376.568Z" fill="#F9DD16"/>
</g>
<g id="g1350">
<path id="path1352" d="M416.008 279.222C415.9 278.44 415.786 277.606 415.786 277.606C415.786 277.606 410.881 279.241 405.555 279.241C403.672 279.241 398.989 279.105 396.747 276.988C392.644 273.114 391.217 266.132 391.217 266.132C391.217 266.132 387.282 282.722 405.146 282.722C417.368 282.722 416.194 280.546 416.194 280.546C416.194 280.546 416.103 279.905 416.008 279.222V279.222Z" fill="#FF3000"/>
</g>
<path id="lion2" d="M363.749 304.425L381.921 305.562L423.944 332.819L404.635 347.582C404.635 347.582 375.108 337.763 376.242 360.477L414.458 361.145L473.911 347.581V340.767C473.911 340.767 489.812 339.631 493.22 339.631C496.624 339.631 548.867 314.646 548.867 314.646L553.411 315.783L548.867 347.581L531.832 346.447C527.158 348.629 525.689 353.618 525.018 357.802H565.905C565.905 357.802 567.038 345.311 570.447 339.631C573.852 333.952 584.076 321.459 584.076 321.459C584.076 321.459 595.431 337.361 621.55 345.311C602.773 346.041 606.791 357.802 606.791 357.802L638.588 358.936C638.588 358.936 640.857 333.951 639.723 333.951C638.588 333.951 636.116 326.271 623.822 330.545C623.957 322.794 620.349 296.274 610.194 295.34C616.075 289.594 623.624 285.585 621.55 269.217C615.874 247.641 589.752 252.184 589.752 252.184L525.018 270.354C525.018 270.354 500.035 277.167 496.624 270.354C493.22 263.539 502.305 251.048 502.305 251.048C502.305 251.048 477.319 257.861 481.861 273.762C486.406 289.659 518.202 282.845 518.202 282.845L584.076 263.539C584.076 263.539 613.6 258.998 611.331 276.032C609.062 293.067 602.245 287.389 602.245 287.389C602.245 287.389 596.57 281.709 585.211 282.845C573.852 283.984 481.862 302.152 473.911 293.067C475.583 278.773 458.014 260.134 458.014 260.134L464.827 251.048L447.792 255.589C447.792 255.589 429.621 247.641 402.365 264.676C400.767 272.892 402.365 276.033 402.365 276.033C402.365 276.033 415.996 269.217 415.996 280.576C415.996 291.931 406.907 283.984 406.907 283.984V295.339C406.907 295.339 423.945 293.067 423.945 290.795C423.945 288.526 421.273 300.816 421.273 300.816L397.824 299.881C397.822 299.884 371.699 277.169 363.749 304.425V304.425Z" fill="black"/>
<g id="g1355">
<path id="path1357" d="M429.459 260.223L422.358 265.686C422.358 265.686 416.595 260.931 423.314 259.951C429.87 258.994 429.459 260.223 429.459 260.223Z" fill="#F9DD16"/>
</g>
<g id="g1361">
<path id="path1363" d="M414.37 160.417C414.262 159.637 414.147 158.801 414.147 158.801C414.147 158.801 409.242 160.436 403.916 160.436C402.034 160.436 397.35 160.3 395.109 158.183C391.007 154.309 389.578 147.327 389.578 147.327C389.578 147.327 385.643 163.917 403.507 163.917C415.73 163.917 414.555 161.741 414.555 161.741C414.555 161.741 414.465 161.1 414.37 160.417V160.417Z" fill="#FF3000"/>
</g>
<path id="lion1" d="M362.111 185.62L380.283 186.757L422.305 214.013L402.997 228.777C402.997 228.777 373.469 218.957 374.603 241.672L412.82 242.34L472.273 228.776V221.963C472.273 221.963 488.174 220.827 491.581 220.827C494.986 220.827 547.229 195.841 547.229 195.841L551.773 196.978L547.229 228.776L530.194 227.641C525.519 229.824 524.05 234.812 523.379 238.998H564.267C564.267 238.998 565.4 226.506 568.808 220.827C572.214 215.147 582.438 202.655 582.438 202.655C582.438 202.655 593.793 218.556 619.911 226.506C601.134 227.237 605.152 238.998 605.152 238.998L636.949 240.131C636.949 240.131 639.219 215.146 638.084 215.146C636.95 215.146 634.478 207.466 622.184 211.74C622.318 203.991 618.71 177.471 608.556 176.536C614.437 170.789 621.986 166.78 619.911 150.413C614.236 128.837 588.113 133.379 588.113 133.379L523.379 151.549C523.379 151.549 498.396 158.364 494.986 151.549C491.581 144.736 500.666 132.243 500.666 132.243C500.666 132.243 475.681 139.056 480.223 154.957C484.767 170.855 516.564 164.042 516.564 164.042L582.438 144.736C582.438 144.736 611.961 140.194 609.693 157.228C607.423 174.263 600.606 168.584 600.606 168.584C600.606 168.584 594.931 162.905 583.573 164.042C572.214 165.179 480.224 183.348 472.273 174.264C473.945 159.968 456.376 141.329 456.376 141.329L463.189 132.243L446.154 136.786C446.154 136.786 427.982 128.837 400.727 145.871C399.128 154.087 400.727 157.228 400.727 157.228C400.727 157.228 414.356 150.413 414.356 161.771C414.356 173.128 405.268 165.179 405.268 165.179V176.536C405.268 176.536 422.306 174.264 422.306 171.992C422.306 169.722 419.634 182.013 419.634 182.013L396.185 181.078C396.184 181.079 370.061 158.364 362.111 185.62V185.62Z" fill="black"/>
<g id="g1366">
<path id="path1368" d="M427.82 141.418L420.72 146.881C420.72 146.881 414.956 142.126 421.675 141.146C428.231 140.189 427.82 141.418 427.82 141.418Z" fill="#F9DD16"/>
</g>
</g>
</g>
</g>
<defs>
<clipPath id="clip0_0_1">
<rect width="1000" height="557.664" fill="white"/>
</clipPath>
</defs>
</svg>
