<svg width="76" height="44" fill="none" xmlns="http://www.w3.org/2000/svg"><rect width="76" height="44" rx="22" fill="#4C70EF" fill-opacity=".9"/><path d="M23.096 31v-1.656c.448 0 .808-.128 1.08-.384s.496-.592.672-1.008c.192-.416.376-.864.552-1.344l4.68-12.84h1.68l5.112 13.08c.096.24.224.608.384 1.104.16.48.256.904.288 1.272a6.59 6.59 0 0 1 .768-.048c.256-.016.464-.024.624-.024V31H32.48v-1.584c.448 0 .752-.088.912-.264.176-.192.256-.448.24-.768-.016-.32-.104-.68-.264-1.08l-.48-1.32-5.208.096-.384 1.128-.36.936c-.144.4-.28.736-.408 1.008.256-.032.56-.048.912-.048.368-.016.632-.024.792-.024V31h-5.136Zm5.184-6.72h4.008l-1.104-3a23.997 23.997 0 0 1-.552-1.728c-.16-.592-.28-1.112-.36-1.56h-.024l-.288 1.224a17.965 17.965 0 0 1-.6 1.944l-1.08 3.12ZM40.231 31v-1.584c.368-.016.672-.064.912-.144.256-.08.448-.264.576-.552.144-.288.216-.752.216-1.392v-9.192c0-.432.008-.848.024-1.248l.072-.912c-.256.016-.576.032-.96.048-.384 0-.664.008-.84.024V14.2c1.104-.016 2.208-.024 3.312-.024 1.12 0 2.232-.008 3.336-.024 1.92-.016 3.44.344 4.56 1.08 1.136.72 1.664 1.816 1.584 3.288-.032.464-.176.92-.432 1.368-.256.432-.64.824-1.152 1.176-.496.352-1.12.632-1.872.84v.024c1.6.256 2.776.792 3.528 1.608.752.8 1.128 1.696 1.128 2.688 0 1.04-.256 1.92-.768 2.64-.496.704-1.184 1.24-2.064 1.608-.88.352-1.88.528-3 .528h-8.16Zm5.088-1.704h1.584c.256-.016.504-.024.744-.024.976-.048 1.688-.36 2.136-.936.448-.576.672-1.304.672-2.184 0-.736-.152-1.312-.456-1.728a2.438 2.438 0 0 0-1.176-.912 4.093 4.093 0 0 0-1.464-.264h-1.032a18.3 18.3 0 0 0-.912.024v3.912c0 .432-.008.84-.024 1.224s-.04.68-.072.888Zm.096-7.728 1.248-.024c.672-.016 1.2-.168 1.584-.456.4-.288.68-.672.84-1.152a4.775 4.775 0 0 0 .264-1.608c0-.64-.128-1.136-.384-1.488a2.179 2.179 0 0 0-.96-.792 2.804 2.804 0 0 0-1.2-.216c-.256 0-.488.04-.696.12-.208.08-.376.264-.504.552-.128.272-.192.72-.192 1.344v3.72Z" fill="#fff"/></svg>